<svg xmlns="http://www.w3.org/2000/svg" viewBox="0 0 1200 760" width="1200" height="760">
  <style>
    text { font-family: 'Helvetica Neue', Helvetica, Arial, 'PingFang SC', 'Microsoft YaHei', sans-serif; letter-spacing: 0; }
    .shadow { filter: url(#shadow); }
  </style>
  <defs>
    <filter id="shadow" x="-10%" y="-10%" width="120%" height="130%"><feDropShadow dx="0" dy="3" stdDeviation="4" flood-color="#111827" flood-opacity="0.08"/></filter>
    <marker id="arrow-blue" markerWidth="10" markerHeight="7" refX="9" refY="3.5" orient="auto"><polygon points="0 0, 10 3.5, 0 7" fill="#2563eb"/></marker>
    <marker id="arrow-orange" markerWidth="10" markerHeight="7" refX="9" refY="3.5" orient="auto"><polygon points="0 0, 10 3.5, 0 7" fill="#ea580c"/></marker>
    <marker id="arrow-green" markerWidth="10" markerHeight="7" refX="9" refY="3.5" orient="auto"><polygon points="0 0, 10 3.5, 0 7" fill="#059669"/></marker>
    <marker id="arrow-purple" markerWidth="10" markerHeight="7" refX="9" refY="3.5" orient="auto"><polygon points="0 0, 10 3.5, 0 7" fill="#7c3aed"/></marker>
    <marker id="arrow-gray" markerWidth="10" markerHeight="7" refX="9" refY="3.5" orient="auto"><polygon points="0 0, 10 3.5, 0 7" fill="#6b7280"/></marker>
  </defs>
  <rect x="0" y="0" width="1200" height="760" rx="0" ry="0" fill="#ffffff" stroke="none" stroke-width="0"/>
  <text x="600" y="34" fill="#111827" font-size="23" font-weight="800" text-anchor="middle">Claude 本地 Web 控制台架构</text>
  <text x="600" y="60" fill="#6b7280" font-size="13" font-weight="400" text-anchor="middle">浏览器操作本机 Claude CLI；支持手动会话与定时任务，后端做编排、权限、流式输出与审计</text>
  <rect x="34" y="88" width="1132" height="620" rx="10" ry="10" fill="#f9fafb" stroke="#9ca3af" stroke-width="1.2" stroke-dasharray="7,5"/>
  <text x="48" y="112" fill="#9ca3af" font-size="11" font-weight="800" text-anchor="start">LOCALHOST / 本机安全边界</text>
  <rect x="60" y="116" width="310" height="286" rx="10" ry="10" fill="#eff6ff" stroke="#60a5fa" stroke-width="1.2" stroke-dasharray="7,5"/>
  <text x="74" y="140" fill="#60a5fa" font-size="11" font-weight="800" text-anchor="start">CLIENT</text>
  <rect x="410" y="116" width="420" height="286" rx="10" ry="10" fill="#f0fdfa" stroke="#14b8a6" stroke-width="1.2" stroke-dasharray="7,5"/>
  <text x="424" y="140" fill="#14b8a6" font-size="11" font-weight="800" text-anchor="start">BACKEND API</text>
  <rect x="860" y="116" width="286" height="286" rx="10" ry="10" fill="#fff7ed" stroke="#fb923c" stroke-width="1.2" stroke-dasharray="7,5"/>
  <text x="874" y="140" fill="#fb923c" font-size="11" font-weight="800" text-anchor="start">LOCAL EXECUTION</text>
  <rect x="60" y="462" width="770" height="180" rx="10" ry="10" fill="#f8fafc" stroke="#64748b" stroke-width="1.2" stroke-dasharray="7,5"/>
  <text x="74" y="486" fill="#64748b" font-size="11" font-weight="800" text-anchor="start">PERSISTENCE</text>
  <rect x="860" y="462" width="286" height="180" rx="10" ry="10" fill="#faf5ff" stroke="#a78bfa" stroke-width="1.2" stroke-dasharray="7,5"/>
  <text x="874" y="486" fill="#a78bfa" font-size="11" font-weight="800" text-anchor="start">OPS / SECURITY</text>
  <circle cx="120" cy="189" r="13" fill="#fff7ed" stroke="#fed7aa" stroke-width="1.5"/>
  <path d="M 100,234 Q 100,209 120,209 Q 140,209 140,234" fill="#fff7ed" stroke="#fed7aa" stroke-width="1.5"/>
  <text x="120" y="256" fill="#111827" font-size="13" font-weight="800" text-anchor="middle">用户</text>
  <rect x="172" y="152" width="164" height="82" rx="8" ry="8" fill="#eff6ff" stroke="#bfdbfe" stroke-width="1.5" class="shadow"/>
  <rect x="172" y="152" width="164" height="22" rx="8" ry="8" fill="#dbeafe"/>
  <rect x="172" y="166" width="164" height="8" fill="#dbeafe"/>
  <circle cx="187" cy="163" r="4" fill="#ef4444" opacity="0.85"/>
  <circle cx="202" cy="163" r="4" fill="#f59e0b" opacity="0.85"/>
  <circle cx="217" cy="163" r="4" fill="#10b981" opacity="0.85"/>
  <text x="254.0" y="199" fill="#111827" font-size="15" font-weight="800" text-anchor="middle">Web UI</text>
  <text x="254.0" y="220" fill="#6b7280" font-size="12" font-weight="400" text-anchor="middle">聊天 / 定时任务 / 文件 / 设置</text>
  <rect x="172" y="286" width="164" height="70" rx="8" ry="8" fill="#ffffff" stroke="#bfdbfe" stroke-width="1.5" class="shadow"/>
  <text x="254.0" y="316" fill="#111827" font-size="14" font-weight="800" text-anchor="middle">前端应用</text>
  <text x="254.0" y="337" fill="#6b7280" font-size="12" font-weight="400" text-anchor="middle">React/Vite 或 Next.js</text>
  <rect x="440" y="150" width="150" height="72" rx="8" ry="8" fill="#f0fdfa" stroke="#99f6e4" stroke-width="1.5" class="shadow"/>
  <circle cx="465" cy="180" r="15" fill="#009688" opacity="0.94"/>
  <text x="465" y="185" fill="#ffffff" font-size="8" font-weight="800" text-anchor="middle">API</text>
  <text x="490" y="180" fill="#111827" font-size="14" font-weight="800" text-anchor="start">API 网关</text>
  <text x="490" y="201" fill="#6b7280" font-size="12" font-weight="400" text-anchor="start">FastAPI</text>
  <text x="490" y="217" fill="#6b7280" font-size="12" font-weight="400" text-anchor="start">/auth / tasks</text>
  <rect x="640" y="150" width="150" height="72" rx="8" ry="8" fill="#ffffff" stroke="#99f6e4" stroke-width="1.5" class="shadow"/>
  <text x="715.0" y="180" fill="#111827" font-size="14" font-weight="800" text-anchor="middle">会话/任务管理</text>
  <text x="715.0" y="201" fill="#6b7280" font-size="12" font-weight="400" text-anchor="middle">history / schedules</text>
  <rect x="440" y="280" width="150" height="72" rx="8" ry="8" fill="#ffffff" stroke="#99f6e4" stroke-width="1.5" class="shadow"/>
  <text x="515.0" y="310" fill="#111827" font-size="14" font-weight="800" text-anchor="middle">流式适配器</text>
  <text x="515.0" y="331" fill="#6b7280" font-size="12" font-weight="400" text-anchor="middle">SSE / WebSocket</text>
  <rect x="640" y="280" width="150" height="72" rx="8" ry="8" fill="#faf5ff" stroke="#c4b5fd" stroke-width="1.5" class="shadow"/>
  <circle cx="665" cy="310" r="15" fill="#9333ea" opacity="0.94"/>
  <text x="665" y="315" fill="#ffffff" font-size="8" font-weight="800" text-anchor="middle">JOB</text>
  <text x="690" y="310" fill="#111827" font-size="14" font-weight="800" text-anchor="start">执行编排</text>
  <text x="690" y="331" fill="#6b7280" font-size="12" font-weight="400" text-anchor="start">job runner / queue</text>
  <rect x="640" y="362" width="150" height="42" rx="8" ry="8" fill="#fff7ed" stroke="#fed7aa" stroke-width="1.5" class="shadow"/>
  <circle cx="665" cy="383" r="13" fill="#ea580c" opacity="0.9"/>
  <text x="665" y="388" fill="#ffffff" font-size="8" font-weight="800" text-anchor="middle">CRON</text>
  <text x="688" y="380" fill="#111827" font-size="13" font-weight="800" text-anchor="start">定时调度器</text>
  <text x="688" y="397" fill="#6b7280" font-size="11" font-weight="400" text-anchor="start">cron / APScheduler</text>
  <rect x="900" y="150" width="110" height="72" rx="8" ry="8" fill="#fff7ed" stroke="#fed7aa" stroke-width="1.5" class="shadow"/>
  <text x="955.0" y="180" fill="#111827" font-size="14" font-weight="800" text-anchor="middle">命令构建</text>
  <text x="955.0" y="201" fill="#6b7280" font-size="12" font-weight="400" text-anchor="middle">stdin</text>
  <text x="955.0" y="217" fill="#6b7280" font-size="12" font-weight="400" text-anchor="middle">flags</text>
  <rect x="1022" y="150" width="110" height="72" rx="8" ry="8" fill="#fff7ed" stroke="#fed7aa" stroke-width="1.5" class="shadow"/>
  <text x="1077.0" y="180" fill="#111827" font-size="14" font-weight="800" text-anchor="middle">权限闸门</text>
  <text x="1077.0" y="201" fill="#6b7280" font-size="12" font-weight="400" text-anchor="middle">timeout</text>
  <text x="1077.0" y="217" fill="#6b7280" font-size="12" font-weight="400" text-anchor="middle">allowlist</text>
  <rect x="930" y="280" width="172" height="72" rx="8" ry="8" fill="#fff1f2" stroke="#fecdd3" stroke-width="1.5" class="shadow"/>
  <circle cx="955" cy="310" r="15" fill="#D97757" opacity="0.94"/>
  <text x="955" y="315" fill="#ffffff" font-size="8" font-weight="800" text-anchor="middle">Claude</text>
  <text x="980" y="310" fill="#111827" font-size="14" font-weight="800" text-anchor="start">Claude CLI</text>
  <text x="980" y="331" fill="#6b7280" font-size="12" font-weight="400" text-anchor="start">subprocess / stream</text>
  <ellipse cx="155" cy="510" rx="46.0" ry="13.142857142857142" fill="#f0fdfa" stroke="#14b8a6" stroke-width="1.5"/>
  <rect x="109.0" y="510" width="92" height="74" fill="#f0fdfa"/>
  <line x1="109.0" y1="510" x2="109.0" y2="584" stroke="#14b8a6" stroke-width="1.5"/>
  <line x1="201.0" y1="510" x2="201.0" y2="584" stroke="#14b8a6" stroke-width="1.5"/>
  <ellipse cx="155" cy="584" rx="46.0" ry="13.142857142857142" fill="#ccfbf1" stroke="#14b8a6" stroke-width="1.5"/>
  <text x="155" y="542" fill="#111827" font-size="13" font-weight="800" text-anchor="middle">SQLite</text>
  <text x="155" y="561" fill="#6b7280" font-size="11" font-weight="400" text-anchor="middle">会话 / 任务记录</text>
  <path d="M 270,494 L 382,494 L 396,508 L 396,586 L 270,586 Z" fill="#f8fafc" stroke="#cbd5e1" stroke-width="1.5"/>
  <path d="M 382,494 L 382,508 L 396,508" fill="#ffffff" stroke="#cbd5e1" stroke-width="1" opacity="0.7"/>
  <text x="333.0" y="525" fill="#111827" font-size="13" font-weight="800" text-anchor="middle">日志文件</text>
  <line x1="286" y1="546" x2="380" y2="546" stroke="#cbd5e1" opacity="0.55"/>
  <text x="333.0" y="569" fill="#6b7280" font-size="11" font-weight="400" text-anchor="middle">stdout / stderr</text>
  <path d="M 468,494 L 580,494 L 594,508 L 594,586 L 468,586 Z" fill="#fff7ed" stroke="#fed7aa" stroke-width="1.5"/>
  <path d="M 580,494 L 580,508 L 594,508" fill="#ffffff" stroke="#fed7aa" stroke-width="1" opacity="0.7"/>
  <text x="531.0" y="525" fill="#111827" font-size="13" font-weight="800" text-anchor="middle">配置</text>
  <line x1="484" y1="546" x2="578" y2="546" stroke="#fed7aa" opacity="0.55"/>
  <text x="531.0" y="569" fill="#6b7280" font-size="11" font-weight="400" text-anchor="middle">.env / profile</text>
  <path d="M 666,494 L 778,494 L 792,508 L 792,586 L 666,586 Z" fill="#eff6ff" stroke="#bfdbfe" stroke-width="1.5"/>
  <path d="M 778,494 L 778,508 L 792,508" fill="#ffffff" stroke="#bfdbfe" stroke-width="1" opacity="0.7"/>
  <text x="729.0" y="525" fill="#111827" font-size="13" font-weight="800" text-anchor="middle">工作目录</text>
  <line x1="682" y1="546" x2="776" y2="546" stroke="#bfdbfe" opacity="0.55"/>
  <text x="729.0" y="569" fill="#6b7280" font-size="11" font-weight="400" text-anchor="middle">上传 / 产物</text>
  <rect x="890" y="494" width="110" height="58" rx="8" ry="8" fill="#ffffff" stroke="#ddd6fe" stroke-width="1.5" class="shadow"/>
  <text x="945.0" y="524" fill="#111827" font-size="14" font-weight="800" text-anchor="middle">健康检查</text>
  <text x="945.0" y="545" fill="#6b7280" font-size="12" font-weight="400" text-anchor="middle">/health + scheduler</text>
  <rect x="1014" y="494" width="110" height="58" rx="8" ry="8" fill="#ffffff" stroke="#ddd6fe" stroke-width="1.5" class="shadow"/>
  <text x="1069.0" y="524" fill="#111827" font-size="14" font-weight="800" text-anchor="middle">审计追踪</text>
  <text x="1069.0" y="545" fill="#6b7280" font-size="12" font-weight="400" text-anchor="middle">request id</text>
  <rect x="926" y="586" width="162" height="40" rx="8" ry="8" fill="#faf5ff" stroke="#ddd6fe" stroke-width="1.5" class="shadow"/>
  <text x="1007.0" y="616" fill="#111827" font-size="14" font-weight="800" text-anchor="middle">本机访问优先</text>
  <text x="1007.0" y="637" fill="#6b7280" font-size="12" font-weight="400" text-anchor="middle">127.0.0.1 + token</text>
  <path d="M 140,211 L 172,211" fill="none" stroke="#2563eb" stroke-width="2" marker-end="url(#arrow-blue)"/>
  <rect x="129.0" y="181" width="54" height="24" rx="5" ry="5" fill="#ffffff" stroke="none" stroke-width="0" opacity="0.96"/>
  <text x="156" y="198" fill="#374151" font-size="12" font-weight="700" text-anchor="middle">操作</text>
  <path d="M 336,193 L 440,193" fill="none" stroke="#2563eb" stroke-width="2" marker-end="url(#arrow-blue)"/>
  <rect x="334.5" y="163" width="107" height="24" rx="5" ry="5" fill="#ffffff" stroke="none" stroke-width="0" opacity="0.96"/>
  <text x="388" y="180" fill="#374151" font-size="12" font-weight="700" text-anchor="middle">HTTP 请求</text>
  <path d="M 515,222 L 515,254 L 715,254 L 715,280" fill="none" stroke="#2563eb" stroke-width="2" marker-end="url(#arrow-blue)"/>
  <rect x="581.0" y="229" width="68" height="24" rx="5" ry="5" fill="#ffffff" stroke="none" stroke-width="0" opacity="0.96"/>
  <text x="615" y="246" fill="#374151" font-size="12" font-weight="700" text-anchor="middle">创建任务</text>
  <path d="M 590,186 L 640,186" fill="none" stroke="#2563eb" stroke-width="2" marker-end="url(#arrow-blue)"/>
  <rect x="587.5" y="157" width="55" height="24" rx="5" ry="5" fill="#ffffff" stroke="none" stroke-width="0" opacity="0.96"/>
  <text x="615" y="174" fill="#374151" font-size="12" font-weight="700" text-anchor="middle">上下文</text>
  <path d="M 790,302 L 846,302 L 846,186 L 900,186" fill="none" stroke="#ea580c" stroke-width="2" marker-end="url(#arrow-orange)"/>
  <rect x="812.0" y="235" width="68" height="24" rx="5" ry="5" fill="#ffffff" stroke="none" stroke-width="0" opacity="0.96"/>
  <text x="846" y="252" fill="#374151" font-size="12" font-weight="700" text-anchor="middle">执行控制</text>
  <path d="M 790,383 L 812,383 L 812,334 L 790,334" fill="none" stroke="#ea580c" stroke-width="1.8" stroke-dasharray="4,3" marker-end="url(#arrow-orange)"/>
  <rect x="798.0" y="348" width="68" height="24" rx="5" ry="5" fill="#ffffff" stroke="none" stroke-width="0" opacity="0.96"/>
  <text x="832" y="365" fill="#374151" font-size="12" font-weight="700" text-anchor="middle">到点触发</text>
  <path d="M 1010,186 L 1022,186" fill="none" stroke="#ea580c" stroke-width="2" marker-end="url(#arrow-orange)"/>
  <path d="M 1077,222 L 1077,256 L 1016,256 L 1016,280" fill="none" stroke="#ea580c" stroke-width="2" marker-end="url(#arrow-orange)"/>
  <rect x="1015.0" y="230" width="94" height="24" rx="5" ry="5" fill="#ffffff" stroke="none" stroke-width="0" opacity="0.96"/>
  <text x="1062" y="247" fill="#374151" font-size="12" font-weight="700" text-anchor="middle">启动 CLI</text>
  <path d="M 930,316 L 846,316 L 846,414 L 515,414 L 515,352" fill="none" stroke="#2563eb" stroke-width="2" marker-end="url(#arrow-blue)"/>
  <rect x="524.0" y="394" width="72" height="24" rx="5" ry="5" fill="#ffffff" stroke="none" stroke-width="0" opacity="0.96"/>
  <text x="560" y="411" fill="#374151" font-size="12" font-weight="700" text-anchor="middle">CLI 输出</text>
  <path d="M 440,316 L 386,316 L 386,250 L 254,250 L 254,234" fill="none" stroke="#2563eb" stroke-width="2" marker-end="url(#arrow-blue)"/>
  <rect x="352.0" y="289" width="68" height="24" rx="5" ry="5" fill="#ffffff" stroke="none" stroke-width="0" opacity="0.96"/>
  <text x="386" y="306" fill="#374151" font-size="12" font-weight="700" text-anchor="middle">流式输出</text>
  <path d="M 640,186 L 612,186 L 612,436 L 155,436 L 155,510" fill="none" stroke="#059669" stroke-width="1.8" stroke-dasharray="5,3" marker-end="url(#arrow-green)"/>
  <rect x="308.0" y="409" width="68" height="24" rx="5" ry="5" fill="#ffffff" stroke="none" stroke-width="0" opacity="0.96"/>
  <text x="342" y="426" fill="#374151" font-size="12" font-weight="700" text-anchor="middle">读写会话</text>
  <path d="M 715,404 L 715,452 L 155,452 L 155,510" fill="none" stroke="#059669" stroke-width="1.8" stroke-dasharray="5,3" marker-end="url(#arrow-green)"/>
  <rect x="402.0" y="438" width="68" height="24" rx="5" ry="5" fill="#ffffff" stroke="none" stroke-width="0" opacity="0.96"/>
  <text x="436" y="455" fill="#374151" font-size="12" font-weight="700" text-anchor="middle">任务定义</text>
  <path d="M 715,352 L 715,432 L 333,432 L 333,494" fill="none" stroke="#059669" stroke-width="1.8" stroke-dasharray="5,3" marker-end="url(#arrow-green)"/>
  <rect x="496.5" y="405" width="55" height="24" rx="5" ry="5" fill="#ffffff" stroke="none" stroke-width="0" opacity="0.96"/>
  <text x="524" y="422" fill="#374151" font-size="12" font-weight="700" text-anchor="middle">写日志</text>
  <path d="M 955,222 L 955,242 L 884,242 L 884,434 L 531,434 L 531,494" fill="none" stroke="#059669" stroke-width="1.8" marker-end="url(#arrow-green)"/>
  <rect x="714.5" y="433" width="55" height="24" rx="5" ry="5" fill="#ffffff" stroke="none" stroke-width="0" opacity="0.96"/>
  <text x="742" y="450" fill="#374151" font-size="12" font-weight="700" text-anchor="middle">读配置</text>
  <path d="M 790,316 L 824,316 L 824,442 L 729,442 L 729,494" fill="none" stroke="#059669" stroke-width="1.8" marker-end="url(#arrow-green)"/>
  <rect x="783.5" y="393" width="81" height="24" rx="5" ry="5" fill="#ffffff" stroke="none" stroke-width="0" opacity="0.96"/>
  <text x="824" y="410" fill="#374151" font-size="12" font-weight="700" text-anchor="middle">文件上下文</text>
  <path d="M 790,316 L 835,316 L 835,424 L 1069,424 L 1069,494" fill="none" stroke="#7c3aed" stroke-width="1.6" stroke-dasharray="4,3" marker-end="url(#arrow-purple)"/>
  <rect x="1035.0" y="427" width="68" height="24" rx="5" ry="5" fill="#ffffff" stroke="none" stroke-width="0" opacity="0.96"/>
  <text x="1069" y="444" fill="#374151" font-size="12" font-weight="700" text-anchor="middle">审计事件</text>
  <path d="M 1007,586 L 1007,552" fill="none" stroke="#7c3aed" stroke-width="1.6" stroke-dasharray="4,3" marker-end="url(#arrow-purple)"/>
  <rect x="1026.0" y="558" width="68" height="24" rx="5" ry="5" fill="#ffffff" stroke="none" stroke-width="0" opacity="0.96"/>
  <text x="1060" y="575" fill="#374151" font-size="12" font-weight="700" text-anchor="middle">访问约束</text>
  <g transform="translate(72, 668)">
    <line x1="0" y1="8" x2="34" y2="8" stroke="#2563eb" stroke-width="2" marker-end="url(#arrow-blue)"/><text x="44" y="12" fill="#6b7280" font-size="12">请求 / 响应</text>
    <line x1="150" y1="8" x2="184" y2="8" stroke="#ea580c" stroke-width="2" marker-end="url(#arrow-orange)"/><text x="194" y="12" fill="#6b7280" font-size="12">执行控制</text>
    <line x1="300" y1="8" x2="334" y2="8" stroke="#059669" stroke-width="1.8" stroke-dasharray="5,3" marker-end="url(#arrow-green)"/><text x="344" y="12" fill="#6b7280" font-size="12">存储读写</text>
    <line x1="450" y1="8" x2="484" y2="8" stroke="#7c3aed" stroke-width="1.6" stroke-dasharray="4,3" marker-end="url(#arrow-purple)"/><text x="494" y="12" fill="#6b7280" font-size="12">审计 / 安全</text>
  </g>
  <rect x="34" y="718" width="1132" height="28" rx="6" ry="6" fill="#f9fafb" stroke="#e5e7eb" stroke-width="1"/>
  <text x="600" y="737" fill="#374151" font-size="13" font-weight="700" text-anchor="middle">核心建议：手动会话和定时任务共用同一执行通道；后端只暴露受控命令和安全路径，Claude 配置留在本机。</text>
</svg>
